<?xml version="1.0" encoding="UTF-8" standalone="no"?>
<svg
   viewBox="0 0 24 24"
   width="512"
   height="512"
   version="1.1"
   id="svg2"
   sodipodi:docname="trash.svg"
   inkscape:version="1.4.3 (0d15f75042, 2025-12-25)"
   xmlns:inkscape="http://www.inkscape.org/namespaces/inkscape"
   xmlns:sodipodi="http://sodipodi.sourceforge.net/DTD/sodipodi-0.dtd"
   xmlns="http://www.w3.org/2000/svg"
   xmlns:svg="http://www.w3.org/2000/svg">
  <defs
     id="defs2" />
  <sodipodi:namedview
     id="namedview2"
     pagecolor="#505050"
     bordercolor="#eeeeee"
     borderopacity="1"
     inkscape:showpageshadow="0"
     inkscape:pageopacity="0"
     inkscape:pagecheckerboard="0"
     inkscape:deskcolor="#505050"
     inkscape:zoom="1.2539062"
     inkscape:cx="255.60125"
     inkscape:cy="256"
     inkscape:window-width="1536"
     inkscape:window-height="893"
     inkscape:window-x="0"
     inkscape:window-y="0"
     inkscape:window-maximized="1"
     inkscape:current-layer="svg2" />
  <g
     id="_01_align_center"
     data-name="01 align center"
     style="fill:#ffffff;fill-opacity:1">
    <path
       d="M22,4H17V2a2,2,0,0,0-2-2H9A2,2,0,0,0,7,2V4H2V6H4V21a3,3,0,0,0,3,3H17a3,3,0,0,0,3-3V6h2ZM9,2h6V4H9Zm9,19a1,1,0,0,1-1,1H7a1,1,0,0,1-1-1V6H18Z"
       id="path1"
       style="fill:#ffffff;fill-opacity:1" />
    <rect
       x="9"
       y="10"
       width="2"
       height="8"
       id="rect1"
       style="fill:#ffffff;fill-opacity:1" />
    <rect
       x="13"
       y="10"
       width="2"
       height="8"
       id="rect2"
       style="fill:#ffffff;fill-opacity:1" />
  </g>
</svg>
